<?xml version="1.0" standalone="no"?>
<!DOCTYPE svg PUBLIC "-//W3C//DTD SVG 20010904//EN"
 "http://www.w3.org/TR/2001/REC-SVG-20010904/DTD/svg10.dtd">
<svg version="1.0" xmlns="http://www.w3.org/2000/svg"
 width="512.000000pt" height="512.000000pt" viewBox="0 0 512.000000 512.000000"
 preserveAspectRatio="xMidYMid meet">
<metadata>
Created by potrace 1.14, written by Peter Selinger 2001-2017
</metadata>
<g transform="translate(0.000000,512.000000) scale(0.100000,-0.100000)"
fill="#000000" stroke="none">
<path d="M2613 5077 c0 -23 -2 -48 -6 -55 -5 -6 -5 -12 0 -12 4 0 7 -22 6 -50
0 -27 3 -48 7 -45 11 7 16 -13 15 -52 -1 -18 4 -33 9 -33 6 0 5 -4 -3 -9 -11
-7 -10 -12 7 -27 16 -13 19 -21 10 -31 -8 -10 -7 -13 3 -13 11 0 11 -2 -1 -10
-12 -8 -12 -10 -1 -10 11 0 11 -3 0 -17 -10 -11 -10 -14 -1 -9 7 4 12 1 12 -8
0 -9 5 -16 10 -16 6 0 10 -6 9 -12 -3 -28 2 -40 14 -35 9 3 13 -2 12 -16 -1
-12 2 -25 7 -28 8 -5 14 -25 17 -51 1 -5 8 -8 16 -8 9 0 15 -6 14 -12 -3 -25
1 -51 7 -45 10 10 94 -83 94 -104 0 -16 6 -18 40 -16 22 2 40 0 40 -5 0 -4 6
-7 13 -6 6 2 11 -2 10 -7 -1 -6 19 -10 48 -9 33 0 49 -4 49 -12 0 -8 14 -11
40 -10 22 0 40 -3 40 -7 0 -5 5 -5 10 -2 6 3 13 0 16 -8 3 -8 16 -13 30 -11
13 1 31 -4 38 -12 8 -8 23 -14 34 -14 11 0 22 -7 25 -15 4 -10 17 -13 43 -9
21 2 35 1 31 -2 -8 -8 11 -34 25 -34 5 0 6 6 2 12 -5 7 5 3 20 -10 16 -12 34
-22 42 -22 7 0 14 -5 16 -10 2 -6 13 -12 25 -13 13 0 25 -7 27 -14 3 -7 12
-10 20 -7 9 3 20 -3 28 -15 7 -12 19 -21 26 -21 7 0 11 -4 7 -9 -3 -5 -1 -12
5 -16 5 -3 10 0 10 7 1 8 6 7 14 -5 8 -10 17 -18 20 -18 20 3 26 0 21 -8 -3
-6 4 -15 15 -21 15 -8 20 -8 20 2 1 7 6 3 13 -10 7 -12 17 -19 22 -15 4 4 5 0
2 -9 -5 -13 -1 -18 13 -18 12 0 20 -7 20 -16 0 -11 6 -15 18 -12 12 4 27 -5
41 -23 13 -16 29 -29 37 -29 8 0 11 -6 7 -17 -5 -12 -2 -15 10 -10 9 3 17 2
17 -3 0 -5 29 -39 64 -74 35 -36 61 -68 57 -71 -3 -4 -1 -5 5 -3 5 1 38 -25
72 -60 43 -43 59 -67 55 -79 -4 -11 -3 -14 5 -9 8 5 12 -1 12 -16 0 -15 3 -19
8 -10 6 9 12 6 22 -12 7 -14 17 -23 21 -20 4 2 10 0 14 -6 3 -5 1 -10 -6 -10
-8 0 -9 -3 0 -13 6 -8 8 -17 4 -20 -3 -4 -1 -7 5 -7 17 0 49 -34 45 -47 -2 -6
3 -18 12 -27 9 -9 13 -20 10 -26 -3 -6 0 -13 8 -16 8 -3 17 -18 21 -35 3 -19
12 -29 23 -29 15 0 16 -2 3 -10 -10 -6 -11 -10 -2 -10 6 0 11 -3 11 -7 -3 -20
2 -34 10 -28 6 3 8 -3 6 -14 -2 -11 3 -22 11 -25 9 -3 13 -10 10 -15 -4 -5 0
-12 6 -14 10 -4 10 -6 0 -6 -10 -1 -10 -4 0 -15 7 -8 16 -12 20 -10 4 3 5 -5
3 -16 -5 -24 13 -70 27 -70 5 0 4 -9 -2 -19 -7 -14 -7 -22 0 -26 6 -4 7 -11 4
-17 -4 -7 -2 -8 4 -4 14 9 26 -35 17 -63 -4 -14 -1 -23 9 -27 12 -4 16 -20 16
-54 0 -29 5 -50 12 -52 8 -3 12 -29 13 -75 1 -52 5 -75 18 -87 19 -20 23 -41
5 -30 -7 5 -8 3 -3 -6 13 -21 14 -80 1 -73 -6 4 -5 0 2 -9 9 -11 10 -18 2 -23
-7 -4 -7 -12 0 -25 12 -23 13 -33 2 -26 -10 6 -9 -24 1 -41 4 -6 3 -14 -3 -18
-6 -4 -7 -12 -3 -18 11 -17 11 -60 0 -74 -6 -8 -6 -13 0 -13 5 0 9 -9 10 -20
1 -11 -2 -18 -8 -15 -5 4 -6 -3 0 -17 9 -25 1 -58 -14 -61 -5 -1 -10 -33 -10
-70 0 -40 -5 -71 -12 -75 -7 -4 -13 -34 -15 -67 -2 -37 -7 -59 -14 -58 -6 1
-11 -12 -10 -30 1 -18 -3 -33 -8 -34 -17 -3 -25 -27 -15 -45 7 -13 5 -22 -9
-36 -10 -10 -17 -28 -16 -40 2 -11 -3 -28 -12 -37 -9 -9 -14 -25 -11 -35 3
-11 1 -18 -3 -15 -11 7 -32 -30 -23 -39 3 -3 1 -6 -5 -6 -12 0 -27 -38 -23
-58 1 -7 -4 -11 -11 -10 -7 2 -12 -5 -12 -14 1 -10 -2 -18 -8 -18 -5 0 -6 -4
-3 -10 3 -5 -1 -10 -9 -10 -9 0 -13 -6 -10 -14 3 -7 -2 -21 -11 -29 -9 -9 -15
-25 -13 -34 2 -10 -2 -17 -9 -16 -6 2 -15 -6 -18 -17 -4 -11 -11 -18 -16 -15
-8 5 -14 -24 -10 -47 0 -5 -6 -8 -14 -8 -8 0 -15 -7 -15 -15 0 -9 -6 -12 -17
-8 -11 4 -14 3 -9 -5 4 -7 1 -14 -6 -17 -8 -3 -14 -14 -15 -25 -2 -21 -37 -60
-56 -60 -8 0 -7 -4 3 -10 10 -7 11 -10 3 -11 -28 -3 -32 -4 -40 -13 -5 -6 -2
-6 7 -1 8 5 -2 -8 -22 -28 -20 -21 -42 -37 -49 -37 -7 0 -10 -2 -7 -6 7 -6
-209 -224 -220 -223 -21 4 -34 -3 -43 -25 -7 -14 -17 -22 -25 -19 -7 2 -23 -7
-35 -21 -13 -14 -29 -26 -36 -26 -8 0 -12 -4 -9 -9 4 -5 -2 -7 -12 -4 -12 3
-25 -4 -36 -22 -9 -14 -21 -23 -26 -20 -5 3 -11 1 -15 -5 -4 -6 -11 -8 -16 -5
-5 4 -9 -1 -9 -10 0 -11 -5 -15 -15 -11 -8 3 -21 -2 -30 -10 -8 -8 -19 -12
-25 -9 -5 3 -10 1 -10 -5 0 -6 -4 -8 -10 -5 -5 3 -10 2 -10 -3 0 -6 7 -13 16
-16 8 -3 12 -10 9 -16 -3 -5 0 -10 9 -10 8 0 22 -3 32 -7 12 -4 15 -3 10 5 -4
8 -2 10 8 6 8 -3 17 -12 20 -20 3 -9 16 -15 28 -14 48 4 79 0 73 -10 -6 -11 2
-12 75 -13 35 0 48 -5 57 -21 7 -12 12 -16 13 -9 0 11 17 12 35 2 11 -7 31 -5
59 7 13 5 17 4 12 -4 -4 -8 3 -8 26 -1 21 6 34 5 36 0 5 -14 34 -1 57 26 11
13 29 23 38 23 10 0 20 7 23 15 4 8 13 15 21 15 8 0 11 5 8 10 -6 9 8 14 28
11 5 -1 6 3 3 8 -4 5 3 16 14 24 11 7 17 17 12 21 -4 5 3 6 15 4 15 -2 35 11
66 44 25 25 42 49 39 53 -4 4 0 5 8 3 8 -2 14 3 12 10 -1 8 1 11 6 8 12 -7 57
45 54 62 -2 7 4 15 13 18 8 3 15 12 15 20 0 8 6 13 13 11 6 -1 11 4 10 11 -2
6 4 12 12 12 8 0 15 3 15 8 0 4 10 18 21 32 11 14 17 18 13 10 -7 -13 -5 -13
9 -1 13 10 14 18 6 32 -7 14 -6 19 2 19 16 0 80 70 74 80 -3 5 7 18 21 29 15
12 23 21 18 21 -5 0 -1 5 9 11 9 6 15 14 12 19 -3 5 1 20 10 33 8 13 12 26 9
29 -3 4 4 9 16 13 13 4 19 12 16 21 -3 8 -2 13 3 10 11 -7 23 22 15 35 -3 5 2
9 10 9 10 0 16 9 16 24 0 13 6 26 14 29 9 4 12 14 9 28 -5 17 -3 21 9 17 14
-6 16 -2 20 41 1 11 7 19 13 18 5 -1 10 9 11 23 1 33 14 61 25 54 5 -3 9 0 9
5 0 6 -5 11 -10 11 -6 0 -2 9 9 21 11 12 18 32 17 50 -1 17 4 35 13 42 12 10
13 9 6 -2 -5 -9 -4 -12 2 -8 5 4 9 22 8 41 -2 23 2 37 12 40 10 4 14 18 12 47
-2 27 2 45 11 53 9 6 15 27 15 51 -1 24 6 50 18 65 11 15 14 26 8 28 -6 2 -8
9 -4 15 11 18 12 36 2 43 -5 3 -6 11 -2 17 11 18 12 37 2 37 -4 0 -6 7 -3 15
3 8 11 13 17 12 9 -1 12 76 12 293 0 206 -3 294 -11 293 -6 -1 -11 5 -12 13
-1 8 -3 20 -4 27 -1 7 2 25 6 40 4 16 2 27 -4 27 -6 0 -6 9 1 27 6 15 7 25 3
21 -14 -15 -31 19 -29 60 1 27 -3 42 -11 42 -6 0 -14 11 -16 25 -3 14 -2 25 2
25 12 0 -2 51 -16 57 -8 3 -11 16 -9 34 2 16 -1 29 -6 29 -6 0 -7 5 -4 10 3 6
-1 10 -11 10 -13 0 -14 3 -5 14 8 10 9 16 1 21 -6 3 -8 10 -5 15 3 4 -1 12 -8
18 -7 6 -14 26 -15 44 -2 18 -9 36 -16 40 -9 5 -12 17 -8 30 3 14 2 19 -6 14
-11 -7 -14 -3 -16 27 -1 6 -10 20 -21 29 -14 12 -16 17 -6 18 10 0 7 6 -7 19
-12 10 -23 30 -24 44 -1 14 -6 23 -10 21 -7 -5 -12 10 -9 28 0 4 -9 13 -20 19
-16 8 -18 13 -9 19 9 6 5 16 -19 39 -17 17 -32 41 -33 55 -2 16 -7 22 -17 18
-10 -4 -13 0 -9 16 6 21 -12 47 -25 37 -4 -3 -5 -2 -3 1 3 3 -9 19 -25 35 -17
16 -27 34 -24 39 6 9 -28 49 -42 51 -5 0 -7 7 -5 14 2 10 -3 13 -14 8 -12 -4
-15 -2 -12 8 7 20 -11 51 -24 43 -7 -5 -9 -2 -5 9 4 11 -1 18 -14 22 -11 4
-16 11 -13 17 5 8 1 9 -10 5 -14 -5 -17 -3 -12 8 3 9 0 15 -9 15 -7 0 -16 9
-20 19 -4 12 -12 18 -21 14 -10 -4 -12 0 -8 13 4 11 4 16 0 12 -9 -7 -46 27
-46 42 0 6 -6 9 -12 8 -7 -2 -12 3 -10 10 1 6 -4 12 -11 12 -14 0 -47 35 -47
51 0 5 -4 8 -9 5 -5 -3 -11 1 -15 9 -3 8 -12 12 -20 9 -9 -3 -20 3 -28 15 -7
12 -19 21 -26 21 -7 0 -11 4 -8 9 3 5 -1 12 -10 15 -8 3 -12 10 -9 16 4 6 -1
7 -11 3 -12 -4 -15 -3 -10 5 5 8 -3 14 -22 18 -17 3 -35 16 -42 30 -7 13 -17
21 -21 18 -4 -2 -10 0 -14 5 -3 6 -12 8 -20 4 -9 -3 -15 1 -15 11 0 9 -7 16
-15 16 -8 0 -14 5 -12 12 1 8 -9 12 -25 12 -15 -1 -26 2 -25 5 5 14 -39 48
-60 46 -12 -1 -20 2 -18 6 3 4 -3 13 -12 20 -14 12 -16 12 -8 -1 8 -13 7 -13
-11 0 -10 8 -22 20 -26 25 -4 6 -8 6 -8 1 0 -5 -8 -2 -17 5 -14 12 -16 12 -9
-1 4 -8 1 -7 -7 3 -8 10 -24 19 -35 20 -11 0 -18 5 -16 9 3 4 0 9 -5 9 -6 1
-15 3 -21 4 -5 1 -15 3 -21 4 -5 0 -7 6 -4 11 7 11 6 11 -43 13 -18 1 -37 9
-42 17 -5 8 -12 11 -16 7 -8 -8 -36 12 -30 22 3 3 -13 6 -35 5 -29 -1 -40 4
-45 18 -3 11 -10 15 -17 11 -19 -12 -37 -12 -37 -2 0 6 -4 8 -9 5 -5 -4 -11
-1 -13 4 -2 6 -19 13 -38 16 -19 3 -36 10 -38 15 -2 5 -30 9 -62 9 -38 0 -60
4 -63 13 -3 9 -25 13 -65 12 -34 0 -59 1 -57 4 3 2 -3 10 -13 17 -12 9 -21 9
-29 2 -9 -7 -13 -7 -13 1 0 6 -9 11 -21 11 -11 0 -17 5 -14 10 3 6 -1 10 -10
10 -9 0 -13 5 -10 10 3 6 -1 10 -9 10 -10 0 -16 9 -16 21 0 12 -12 32 -26 45
-14 13 -22 29 -18 35 3 6 -4 18 -16 26 -14 10 -20 22 -17 34 3 11 0 19 -8 19
-7 0 -15 14 -18 30 -4 20 -13 30 -24 30 -14 0 -15 2 -5 9 8 4 14 11 13 15 0 8
-46 46 -55 46 -3 0 -4 -19 -3 -43z"/>
<path d="M2167 4763 c-9 -3 -15 -9 -12 -14 6 -9 -7 -11 -80 -12 -22 0 -46 -6
-53 -14 -7 -7 -31 -13 -53 -13 -22 0 -47 -6 -54 -14 -9 -8 -29 -13 -50 -10
-26 2 -38 -2 -47 -15 -6 -11 -18 -17 -25 -14 -19 7 -65 -6 -58 -17 3 -5 -7 -8
-22 -8 -46 1 -53 -1 -53 -17 0 -9 -6 -12 -16 -8 -11 4 -22 -1 -30 -12 -8 -10
-14 -16 -14 -12 0 4 -8 3 -18 -2 -13 -7 -23 -6 -30 1 -9 9 -12 8 -12 -4 0 -9
-9 -18 -20 -21 -11 -3 -20 0 -20 6 0 6 -3 7 -7 3 -5 -4 -8 -13 -8 -19 0 -7
-12 -13 -28 -15 -15 -2 -25 -8 -22 -13 6 -9 -7 -13 -32 -10 -7 1 -17 -8 -23
-19 -9 -16 -15 -19 -25 -10 -16 13 -30 -3 -19 -22 4 -7 3 -8 -4 -4 -7 4 -12 2
-12 -4 0 -6 -4 -8 -10 -5 -5 3 -10 1 -10 -6 0 -6 -8 -9 -20 -6 -11 3 -18 2
-16 -2 3 -4 -4 -15 -14 -24 -11 -10 -20 -12 -22 -5 -2 6 -18 -4 -35 -21 -18
-17 -36 -30 -41 -29 -5 2 -21 -9 -35 -24 -14 -16 -31 -28 -37 -28 -6 0 -8 -4
-5 -10 3 -5 3 -10 -2 -11 -32 -3 -48 -13 -92 -59 -33 -34 -56 -50 -66 -47 -9
4 -15 1 -15 -8 0 -8 -7 -15 -15 -15 -8 0 -15 -9 -15 -20 0 -14 -5 -18 -17 -13
-11 4 -14 3 -9 -5 4 -7 1 -12 -9 -12 -9 0 -13 -4 -10 -10 3 -6 -4 -10 -17 -10
-19 0 -20 -2 -8 -10 13 -8 11 -11 -7 -16 -13 -4 -23 -12 -23 -18 0 -7 -11 -19
-25 -26 -13 -7 -22 -17 -19 -22 3 -5 -3 -12 -15 -15 -12 -3 -21 -13 -21 -25 0
-21 -67 -95 -82 -90 -5 1 -7 -2 -3 -8 3 -5 1 -10 -4 -10 -6 0 -11 -7 -11 -15
0 -8 -6 -12 -15 -9 -10 4 -13 0 -10 -14 2 -13 -7 -31 -25 -49 -16 -15 -30 -36
-30 -46 0 -10 -7 -20 -15 -23 -8 -4 -12 -10 -9 -15 3 -5 -2 -9 -10 -9 -9 0
-15 -3 -14 -7 4 -15 -14 -53 -22 -48 -5 3 -7 -6 -4 -20 3 -17 0 -24 -8 -23 -7
2 -14 -7 -16 -20 -2 -13 -17 -36 -33 -53 -31 -32 -37 -44 -16 -34 6 4 2 -3
-11 -14 -13 -11 -21 -25 -18 -30 4 -5 -1 -17 -10 -26 -10 -9 -17 -29 -16 -45
0 -16 -6 -31 -13 -34 -8 -3 -12 -14 -10 -27 3 -14 -2 -23 -14 -26 -15 -4 -18
-13 -16 -44 2 -25 -1 -38 -8 -36 -7 1 -12 -11 -12 -28 0 -16 -6 -35 -13 -40
-7 -6 -14 -20 -15 -32 0 -12 -5 -19 -9 -17 -9 6 -23 -44 -15 -53 4 -3 1 -15
-4 -26 -8 -14 -8 -22 1 -27 9 -5 7 -11 -7 -21 -10 -8 -19 -26 -20 -41 -2 -70
-4 -78 -17 -78 -12 0 -14 -17 -6 -40 1 -3 2 -9 1 -14 -1 -4 -2 -29 -3 -55 0
-25 -5 -52 -12 -60 -6 -8 -11 -21 -11 -30 0 -9 -4 -22 -8 -28 -5 -7 -4 -13 0
-13 5 0 9 -9 10 -20 1 -11 -2 -18 -8 -15 -5 4 -5 -3 0 -18 5 -13 5 -30 1 -37
-5 -8 -5 -19 1 -26 7 -8 6 -14 -1 -19 -6 -3 -7 -12 -3 -18 12 -19 11 -87 -1
-79 -6 3 -5 -1 2 -10 9 -11 10 -18 2 -23 -7 -4 -7 -12 0 -25 12 -23 13 -33 2
-26 -10 6 -9 -24 1 -41 4 -6 3 -14 -3 -18 -6 -4 -7 -12 -3 -18 4 -7 8 -23 9
-37 2 -45 4 -51 13 -46 5 3 11 -1 15 -9 3 -8 2 -15 -2 -15 -12 0 -5 -112 8
-120 6 -4 12 -29 12 -56 0 -59 7 -86 18 -79 5 3 11 1 15 -5 3 -5 2 -10 -4 -10
-11 0 3 -60 17 -69 5 -3 9 -19 9 -36 1 -57 3 -66 13 -60 6 4 10 -5 10 -20 0
-14 6 -28 12 -30 7 -3 14 -17 15 -31 1 -27 34 -104 43 -104 3 0 7 -15 8 -32 2
-18 9 -36 16 -40 9 -5 12 -17 8 -30 -3 -14 -2 -19 6 -14 11 6 17 -12 13 -36 0
-5 6 -8 15 -8 8 0 13 -4 10 -8 -3 -5 4 -15 15 -22 10 -8 19 -25 19 -38 0 -13
4 -20 10 -17 8 5 15 -8 8 -17 -5 -9 25 -48 33 -43 5 4 9 -1 9 -9 0 -9 4 -16
10 -16 5 0 9 -3 9 -7 -4 -24 3 -43 15 -43 9 0 12 -7 9 -21 -4 -15 0 -22 15
-26 14 -3 19 -10 15 -21 -4 -10 -3 -14 1 -10 12 10 46 -29 46 -53 0 -11 5 -17
10 -14 6 3 10 1 10 -5 0 -14 58 -70 71 -70 5 0 9 -5 9 -10 0 -13 37 -50 50
-50 5 0 7 -7 3 -16 -4 -11 5 -26 25 -44 17 -15 29 -30 25 -34 -3 -3 1 -6 11
-6 9 0 14 -4 11 -10 -3 -5 1 -10 10 -10 8 0 18 -6 21 -14 3 -8 12 -17 20 -20
8 -3 12 -1 9 4 -3 6 1 7 10 4 9 -4 14 -9 11 -11 -6 -6 31 -43 44 -43 5 0 9 -3
8 -7 -4 -15 64 -73 87 -75 13 -1 22 -4 20 -6 -1 -2 11 -18 27 -37 31 -33 31
-33 52 -14 12 11 22 15 24 9 2 -5 9 -7 15 -3 19 12 37 12 37 2 0 -6 5 -7 12
-3 6 4 29 6 50 6 22 -1 37 2 33 7 -8 14 22 20 84 17 41 -1 59 2 72 15 12 12
19 14 23 6 3 -8 5 -8 5 -1 1 7 14 10 33 8 18 -2 35 1 40 8 4 7 22 13 40 14 18
0 32 4 31 10 -1 5 4 15 10 23 9 12 9 13 0 7 -7 -4 -13 -2 -13 3 0 6 -9 11 -19
11 -11 0 -21 5 -23 10 -2 6 -14 12 -28 15 -14 3 -26 9 -28 15 -2 6 -8 8 -13 4
-5 -3 -9 0 -9 7 0 7 -3 10 -6 7 -3 -3 -19 8 -37 25 -19 18 -32 26 -35 18 -2
-7 -18 3 -37 23 -18 19 -36 32 -39 28 -4 -3 -18 7 -31 22 -14 16 -25 26 -25
22 0 -4 -6 -1 -14 6 -8 7 -12 16 -10 19 2 4 -8 10 -24 14 -29 7 -62 37 -62 55
0 6 -4 9 -8 6 -5 -3 -14 4 -22 14 -8 10 -17 17 -22 14 -5 -3 -8 -2 -7 3 3 17
-1 33 -8 31 -11 -4 -82 69 -75 76 3 3 0 6 -6 6 -17 0 -72 54 -72 70 0 7 -2 11
-5 8 -3 -3 -17 4 -30 16 -13 11 -19 23 -14 27 10 6 -37 59 -53 59 -6 0 -8 7
-4 15 3 8 0 14 -7 12 -7 -1 -11 4 -10 10 4 17 -28 53 -47 53 -13 0 -13 1 0 10
11 7 11 10 2 10 -7 0 -12 8 -10 18 2 9 -3 16 -9 15 -7 -2 -13 3 -13 11 0 8 -7
17 -16 20 -9 3 -14 13 -10 21 3 8 -1 18 -9 22 -8 5 -16 19 -18 32 -2 12 -9 26
-17 31 -7 4 -10 15 -7 24 4 10 1 16 -8 16 -15 0 -19 10 -15 44 1 10 -3 15 -9
12 -5 -4 -15 3 -21 14 -7 13 -7 20 -1 20 7 0 7 9 -1 25 -6 13 -14 22 -18 20
-4 -2 -6 6 -5 20 2 13 -3 26 -11 29 -8 3 -14 19 -14 36 0 17 -7 38 -15 47 -8
8 -13 19 -10 24 4 5 0 9 -7 9 -8 0 -9 3 -3 8 6 4 11 17 11 30 1 12 -1 20 -4
18 -3 -3 -11 2 -18 12 -9 13 -9 19 -1 24 9 6 9 8 0 8 -7 0 -10 10 -7 25 3 16
-2 32 -12 42 -10 10 -14 27 -12 45 3 16 1 31 -3 34 -5 2 -4 15 0 27 6 15 4 36
-6 62 -19 52 -23 421 -5 417 7 -1 12 1 13 5 4 58 2 153 -4 153 -4 0 4 11 18
25 25 26 33 41 16 31 -5 -3 -7 9 -5 27 1 17 3 36 3 40 1 5 5 6 10 3 5 -3 11 3
14 14 3 13 1 18 -6 13 -9 -5 -9 -3 -1 8 6 8 10 26 9 41 -1 15 1 25 6 23 9 -6
19 20 19 55 0 15 6 30 14 33 8 3 13 17 11 35 -2 24 2 32 19 36 13 4 17 9 10
13 -13 9 -3 45 11 44 6 0 10 9 10 21 0 12 6 23 13 26 7 2 10 8 6 13 -3 5 0 9
6 9 6 0 8 5 5 10 -3 6 1 13 10 16 8 4 15 11 14 18 -3 24 1 37 11 31 9 -5 15
23 11 48 0 4 6 7 14 7 8 0 15 7 15 16 0 8 5 12 10 9 6 -3 11 1 11 9 3 29 4 32
23 51 11 11 14 21 8 23 -12 4 22 42 38 42 6 0 10 7 10 15 0 8 6 15 14 15 8 0
13 8 12 17 -3 18 42 70 56 65 4 -1 7 1 7 5 -3 19 2 33 12 33 6 0 29 19 52 43
22 23 45 41 50 39 5 -2 7 4 4 13 -4 8 -2 15 3 15 14 0 50 38 50 52 0 6 3 8 6
5 4 -4 22 10 41 31 19 20 39 36 44 35 5 -2 9 4 9 12 0 8 5 16 10 16 6 1 13 2
18 3 11 2 58 36 49 36 -4 0 2 9 14 21 11 11 26 18 32 16 7 -2 23 9 37 25 14
16 35 30 48 31 12 0 24 7 27 15 3 7 10 10 17 6 7 -4 10 -4 6 1 -13 13 11 33
33 28 13 -4 19 -1 17 8 -2 9 6 14 24 14 14 -1 24 3 22 7 -3 4 0 8 6 8 6 0 9 4
6 9 -3 4 6 7 20 5 18 -2 24 2 20 11 -3 8 2 12 12 11 20 -3 53 15 46 25 -2 5 6
6 18 4 12 -3 32 2 43 9 12 8 32 16 46 18 13 2 23 9 22 15 -2 8 9 11 32 9 21
-2 36 1 39 10 3 7 13 13 23 13 41 1 53 5 53 16 0 8 20 11 60 10 42 0 61 3 65
13 3 8 11 12 18 9 15 -5 17 -118 2 -129 -6 -5 -5 -8 3 -8 16 0 16 -27 -1 -37
-16 -9 -30 -43 -18 -43 4 0 8 -7 8 -15 0 -8 -3 -12 -7 -10 -3 2 -11 -5 -18
-16 -11 -17 -9 -19 13 -19 14 0 26 5 26 10 3 20 4 25 12 38 5 7 13 10 18 7 5
-3 6 2 2 11 -4 11 -3 15 5 10 6 -3 13 3 17 14 4 11 11 18 16 15 8 -6 13 8 10
27 -1 11 42 54 52 50 4 -1 7 2 7 8 0 6 -5 10 -11 10 -6 0 -5 6 3 15 32 35 38
45 29 45 -6 0 -6 11 0 30 6 16 14 28 19 25 4 -2 6 7 4 20 -1 14 2 23 7 19 5
-3 9 0 9 6 0 6 3 9 8 6 4 -2 6 14 4 36 -3 26 -1 38 6 34 13 -8 19 11 17 57 -2
22 2 37 9 37 6 0 5 4 -2 9 -11 7 -9 13 9 30 12 11 17 21 10 21 -7 0 -9 5 -5
12 10 17 11 58 2 64 -5 3 -6 9 -3 14 3 5 0 12 -6 16 -6 3 -15 0 -20 -7 -6 -10
-9 -10 -9 -2 0 9 -7 10 -23 4 -13 -5 -30 -6 -37 -1 -7 4 -25 4 -40 0 -15 -4
-33 -4 -41 -1 -8 4 -22 6 -32 4z"/>
<path d="M2544 4675 c-4 -8 -10 -13 -15 -10 -13 9 -29 -29 -19 -45 5 -9 5 -19
-2 -27 -7 -9 -7 -13 1 -13 8 0 8 -4 -1 -14 -7 -8 -16 -12 -20 -10 -3 2 -5 -10
-4 -28 2 -20 -4 -40 -14 -51 -10 -10 -16 -29 -15 -42 2 -13 -3 -29 -11 -36 -8
-6 -14 -19 -14 -29 0 -10 -7 -20 -15 -24 -8 -3 -12 -12 -9 -21 4 -9 -1 -17
-11 -21 -11 -4 -15 -16 -13 -34 1 -15 -5 -34 -15 -44 -20 -20 -23 -40 -4 -31
6 4 -4 -7 -23 -23 -19 -17 -35 -36 -36 -44 -3 -34 -5 -39 -13 -34 -5 3 -11 -1
-15 -9 -3 -8 0 -18 6 -21 8 -5 5 -10 -7 -14 -10 -3 -20 -17 -22 -29 -2 -13
-15 -32 -29 -43 -14 -11 -23 -26 -20 -33 2 -7 -10 -26 -28 -41 -18 -16 -31
-35 -28 -43 3 -8 -3 -18 -12 -23 -9 -5 -13 -14 -10 -20 5 -7 2 -9 -9 -5 -9 3
-18 0 -21 -9 -3 -8 -1 -14 5 -14 6 0 0 -13 -13 -29 -13 -17 -29 -28 -36 -26
-7 3 -10 0 -7 -5 3 -6 2 -10 -3 -10 -13 0 -33 -56 -24 -66 4 -4 2 -4 -5 0 -6
3 -21 -7 -33 -24 -12 -17 -25 -28 -29 -26 -3 2 -14 -9 -24 -25 -9 -17 -11 -27
-5 -23 6 4 3 -4 -8 -18 -10 -14 -21 -24 -23 -22 -2 2 -11 -5 -18 -16 -8 -11
-19 -18 -24 -14 -5 3 -9 2 -8 -3 3 -20 -2 -34 -11 -28 -5 3 -10 -1 -10 -9 0
-9 -3 -16 -8 -16 -12 0 -72 -58 -72 -70 0 -6 -4 -8 -10 -5 -9 6 -15 -8 -11
-29 1 -5 -5 -4 -13 4 -11 8 -16 9 -16 1 0 -6 -6 -11 -14 -11 -7 0 -23 -13 -36
-30 -13 -16 -29 -30 -36 -30 -8 0 -14 -4 -14 -9 0 -5 -8 -8 -17 -7 -10 0 -17
-4 -16 -11 1 -6 -5 -10 -15 -8 -9 1 -27 -9 -40 -24 -13 -14 -32 -26 -42 -26
-11 0 -26 -9 -34 -20 -9 -11 -16 -15 -16 -8 0 7 -7 10 -15 7 -8 -4 -12 -10 -9
-15 3 -5 1 -9 -3 -9 -5 0 -18 -7 -29 -16 -10 -8 -13 -12 -5 -8 9 5 12 3 7 -5
-4 -6 -16 -9 -26 -6 -11 3 -20 0 -24 -10 -3 -9 -11 -13 -18 -9 -8 5 -9 2 -5
-9 4 -11 1 -17 -7 -17 -8 0 -16 -7 -20 -15 -3 -8 -16 -15 -28 -15 -21 0 -55
-35 -50 -52 1 -4 -4 -5 -12 -2 -8 3 -16 -4 -19 -16 -3 -12 -10 -20 -15 -17 -4
3 -15 -3 -23 -14 -25 -37 -49 -62 -49 -53 0 5 -8 -3 -18 -19 -10 -15 -21 -25
-24 -21 -4 3 -9 -4 -13 -15 -3 -12 -13 -21 -21 -21 -8 0 -14 -7 -14 -15 0 -8
-7 -15 -16 -15 -8 0 -12 -4 -9 -10 3 -5 2 -10 -4 -10 -5 0 -13 -10 -17 -22 -4
-13 -18 -33 -31 -46 -13 -12 -21 -27 -18 -32 3 -6 1 -10 -6 -10 -7 0 -9 -3 -6
-7 4 -3 -8 -17 -25 -30 -18 -12 -27 -23 -21 -23 6 0 9 -9 6 -19 -3 -13 -11
-18 -21 -14 -10 4 -14 3 -10 -2 4 -4 2 -15 -5 -23 -7 -10 -8 -13 -1 -9 8 4 11
-2 10 -18 0 -14 -8 -27 -17 -30 -11 -4 -15 -16 -14 -40 1 -23 -2 -35 -11 -35
-8 0 -11 -9 -8 -26 3 -19 1 -24 -8 -18 -10 6 -10 5 0 -8 9 -11 10 -18 2 -23
-7 -4 -7 -12 0 -25 12 -23 13 -33 2 -26 -10 6 -9 -24 1 -41 4 -6 3 -14 -3 -18
-6 -4 -7 -12 -3 -18 11 -17 11 -60 0 -75 -6 -7 -6 -12 0 -12 5 0 9 -9 10 -20
1 -11 -1 -19 -5 -16 -4 2 -7 -6 -7 -19 0 -13 3 -21 8 -18 4 2 7 -3 7 -11 0 -9
8 -16 18 -16 9 0 13 -4 7 -8 -5 -4 -9 -16 -9 -27 1 -11 2 -30 3 -43 1 -13 6
-20 11 -17 9 6 13 -11 13 -57 0 -10 8 -20 18 -23 11 -4 19 -11 19 -16 0 -6 -5
-7 -11 -3 -8 4 -8 0 0 -15 7 -11 17 -21 22 -21 6 0 9 -7 5 -15 -3 -8 1 -21 9
-29 8 -8 15 -20 15 -27 0 -6 13 -24 28 -39 16 -14 26 -32 24 -38 -2 -6 20 -35
50 -64 29 -29 52 -56 50 -60 -1 -4 5 -5 14 -1 8 3 14 1 12 -4 -2 -5 9 -21 24
-35 15 -14 24 -28 20 -32 -4 -4 -2 -7 3 -6 18 4 35 0 32 -8 -1 -4 8 -17 20
-29 16 -16 24 -18 33 -10 10 9 11 9 6 -1 -4 -7 -1 -12 8 -12 8 0 20 -8 25 -17
6 -10 11 -13 11 -6 0 7 7 10 15 6 9 -3 14 -8 11 -10 -7 -7 20 -33 33 -33 6 0
11 -4 11 -10 0 -5 3 -9 8 -9 19 3 33 -2 27 -10 -3 -6 4 -8 15 -6 11 2 23 -2
27 -9 9 -15 53 -28 53 -15 0 16 29 -3 36 -23 4 -14 8 -17 14 -8 9 15 11 15 36
2 15 -8 24 -8 31 -1 8 8 13 5 18 -10 7 -23 13 -25 35 -11 9 5 19 5 26 -1 8 -7
14 -6 19 1 3 6 12 7 18 3 7 -4 23 -8 37 -9 45 -2 51 -4 45 -14 -4 -7 8 -10 34
-9 24 2 41 8 41 15 0 15 38 25 46 13 4 -6 11 -6 19 1 9 8 15 8 20 0 8 -14 57
-1 72 19 8 11 12 12 13 3 0 -10 4 -10 19 0 11 7 17 16 14 21 -3 5 10 7 28 5
24 -2 40 3 56 20 13 13 23 27 23 33 0 6 8 5 21 -1 17 -10 21 -8 26 9 3 12 12
21 20 21 8 0 11 5 8 10 -3 5 3 10 14 10 10 0 32 13 47 29 15 17 31 28 36 25 4
-3 8 2 8 10 0 11 9 16 27 16 14 0 23 3 20 6 -8 9 33 45 43 39 14 -9 6 -210 -8
-228 -8 -9 -12 -32 -9 -56 2 -23 2 -39 -1 -36 -10 10 -31 -33 -27 -54 2 -13
-2 -24 -10 -28 -8 -3 -15 -16 -15 -29 0 -13 -4 -24 -10 -24 -5 0 -10 -7 -10
-15 0 -8 -5 -15 -11 -15 -8 0 -7 -6 2 -17 11 -13 11 -17 1 -20 -7 -3 -17 -14
-23 -25 -8 -15 -8 -19 0 -14 7 5 9 1 5 -8 -3 -9 -12 -16 -20 -16 -8 0 -14 -7
-14 -15 0 -8 -6 -15 -14 -15 -9 0 -12 -8 -8 -27 4 -21 2 -25 -12 -20 -9 4 -16
1 -16 -5 0 -6 -12 -22 -26 -35 -16 -15 -24 -31 -21 -43 3 -14 1 -17 -11 -13
-8 4 -13 2 -10 -3 3 -5 0 -15 -8 -22 -8 -7 -14 -9 -14 -5 0 4 -8 -4 -17 -17
-10 -14 -17 -28 -16 -32 2 -4 -4 -5 -12 -2 -8 4 -15 1 -15 -5 0 -17 -35 -48
-51 -46 -8 1 -32 -16 -54 -38 -22 -22 -34 -37 -26 -32 10 6 12 4 7 -4 -4 -6
-16 -9 -25 -6 -10 3 -24 -1 -31 -10 -7 -8 -20 -15 -29 -15 -9 0 -25 -11 -35
-25 -10 -14 -27 -25 -36 -25 -10 0 -23 -6 -29 -13 -6 -8 -23 -13 -38 -12 -16
1 -32 -5 -38 -12 -13 -17 -55 -25 -55 -10 0 6 -7 2 -15 -10 -11 -15 -23 -20
-40 -17 -14 2 -25 0 -25 -6 0 -6 -4 -9 -9 -6 -5 4 -11 1 -13 -5 -2 -6 -31 -12
-63 -14 -33 -1 -62 -3 -64 -4 -3 0 6 -12 19 -26 12 -13 27 -22 32 -19 5 4 19
-4 31 -17 12 -12 22 -18 25 -11 2 6 11 3 22 -8 12 -12 26 -17 37 -13 10 3 15
3 11 -2 -13 -14 25 -34 44 -24 13 7 21 3 33 -13 8 -13 18 -22 20 -20 16 8 44
0 39 -11 -3 -10 5 -13 31 -11 23 2 38 -2 41 -11 3 -7 12 -16 20 -19 9 -3 12
-2 9 5 -10 15 26 7 47 -10 21 -18 46 -22 54 -10 3 5 12 5 23 -1 10 -5 22 -6
26 -2 3 4 5 1 3 -6 -2 -8 7 -18 19 -23 13 -4 23 -5 23 0 0 4 14 6 30 3 17 -2
30 -10 30 -17 0 -8 19 -11 66 -9 48 2 70 -1 81 -11 12 -13 67 -15 333 -15 305
0 356 3 345 20 -2 4 29 6 70 6 58 -2 75 1 75 12 0 8 6 12 15 8 8 -3 15 0 15 7
0 8 4 6 10 -3 7 -11 10 -12 10 -2 0 9 7 11 20 7 14 -5 27 1 41 17 11 13 18 18
15 11 -10 -18 66 -11 85 9 10 9 26 14 37 11 10 -2 26 3 35 12 9 9 21 14 25 11
5 -3 22 2 38 10 16 9 41 16 56 16 15 1 29 7 32 15 3 8 10 12 15 8 5 -3 13 0
16 6 4 5 13 8 21 5 8 -3 13 0 11 6 -1 5 7 12 17 14 10 1 22 7 25 12 3 6 17 12
31 14 14 2 24 9 22 16 -1 8 5 12 16 10 10 -1 28 7 41 19 21 20 21 21 4 26 -10
3 -66 5 -125 5 -82 -1 -110 2 -121 14 -11 10 -30 13 -66 11 -28 -3 -51 0 -51
5 0 12 -46 33 -54 24 -13 -13 -37 -10 -49 6 -6 10 -18 17 -24 18 -39 3 -44 5
-38 14 4 6 -10 10 -34 10 -29 0 -41 4 -41 14 0 10 -8 13 -21 11 -14 -3 -23 2
-26 15 -3 11 -11 16 -19 13 -9 -3 -14 0 -12 8 2 8 -7 15 -21 17 -14 2 -40 21
-59 43 -19 21 -38 36 -44 33 -5 -3 -20 6 -33 20 -13 14 -29 26 -35 26 -5 0
-10 5 -10 10 0 6 -14 24 -31 41 -25 25 -29 33 -18 40 8 5 9 9 3 9 -21 0 -54
37 -56 63 -1 14 -5 24 -8 23 -7 -5 -44 37 -48 54 -2 8 -8 18 -13 21 -6 3 -9
10 -8 15 4 21 -2 35 -11 29 -10 -6 -12 0 -12 48 -1 15 -5 27 -9 27 -5 0 -9 7
-9 15 0 8 -5 15 -11 15 -5 0 -7 5 -4 11 11 16 13 59 4 53 -5 -3 -9 2 -9 10 0
9 -4 16 -8 16 -5 0 -8 32 -8 70 0 50 4 70 13 70 14 0 14 1 17 -53 1 -21 6 -41
12 -45 6 -4 10 -15 8 -25 -1 -10 4 -21 12 -24 8 -3 14 -16 14 -29 0 -14 6 -24
14 -24 8 0 13 -8 12 -17 -2 -9 6 -25 17 -36 11 -11 15 -22 9 -26 -5 -3 4 -19
21 -36 17 -16 27 -24 22 -16 -5 9 -4 12 2 8 6 -4 9 -18 8 -32 -2 -14 2 -25 8
-25 7 0 23 -14 36 -30 13 -16 27 -27 32 -24 5 3 6 -2 3 -10 -4 -11 0 -16 11
-16 9 0 13 -5 10 -10 -3 -6 1 -10 9 -10 8 0 24 -12 36 -27 11 -15 29 -28 38
-29 9 -2 22 -10 28 -18 6 -9 14 -13 17 -9 4 3 7 -2 7 -12 0 -10 3 -15 7 -12 3
4 13 -2 20 -13 8 -11 18 -18 23 -15 4 3 13 -2 20 -10 7 -9 21 -13 31 -10 13 4
19 1 19 -9 0 -9 8 -16 19 -16 11 0 23 -4 26 -10 8 -13 35 -13 35 -1 0 5 -9 13
-20 16 -11 3 -20 13 -20 21 0 8 -7 14 -15 14 -8 0 -15 5 -15 11 0 8 -5 8 -15
-1 -12 -10 -15 -9 -15 4 0 9 -10 20 -22 25 -13 5 -23 12 -23 17 0 5 -3 8 -7 7
-5 -2 -8 2 -8 8 0 14 -26 39 -40 39 -6 0 -8 5 -5 11 4 6 -2 13 -14 16 -12 3
-21 8 -21 12 0 4 -9 17 -21 29 -11 13 -21 31 -22 42 -1 11 -6 20 -12 20 -13 0
-47 55 -38 63 3 4 -2 9 -11 13 -9 3 -16 17 -16 30 0 13 -4 24 -9 24 -5 0 -14
14 -20 30 -5 17 -14 30 -18 30 -5 0 -8 16 -7 35 1 19 -2 32 -7 30 -10 -7 -24
43 -15 52 3 4 -2 15 -11 25 -12 14 -16 35 -15 82 1 45 -3 66 -12 69 -7 3 -12
18 -12 34 1 15 -2 36 -7 47 -6 13 -6 16 2 12 6 -4 11 -2 11 3 0 6 5 11 10 11
6 0 10 -7 10 -16 0 -8 5 -12 10 -9 6 3 10 0 11 -7 0 -7 14 -24 32 -38 17 -14
28 -19 24 -12 -16 25 4 11 48 -34 28 -28 51 -44 60 -40 9 3 15 -1 15 -10 0
-10 6 -14 14 -11 10 4 13 1 9 -9 -3 -8 1 -14 11 -15 9 -1 21 -3 26 -4 6 -1 14
-3 20 -4 5 0 7 -8 4 -16 -4 -8 -1 -15 5 -15 6 0 11 5 11 12 0 6 10 2 23 -9 12
-11 34 -19 49 -18 15 1 25 -2 22 -7 -3 -4 2 -8 10 -8 9 0 16 -4 16 -8 0 -4 9
-8 20 -9 11 -1 18 2 15 8 -4 5 3 6 17 1 13 -5 33 -7 45 -6 12 0 21 -2 20 -5
-1 -3 2 -7 7 -8 5 -1 13 -7 17 -15 5 -7 9 -8 9 -3 0 6 26 9 60 9 47 -2 60 1
60 13 0 8 4 12 9 8 5 -3 12 -1 16 4 4 7 15 7 31 1 32 -13 37 -12 29 0 -4 7 2
7 19 0 21 -8 29 -5 46 12 12 13 20 17 20 9 0 -9 4 -10 13 -4 6 6 20 9 30 8 10
-2 17 3 17 12 0 10 6 14 20 10 11 -3 20 -1 20 3 0 4 9 6 20 3 13 -4 20 0 20
10 0 9 9 14 23 13 12 0 21 4 20 10 -1 6 6 11 15 11 34 0 43 3 37 12 -7 12 31
25 45 16 5 -3 10 -1 10 4 0 18 36 48 54 45 10 -1 25 10 37 29 10 18 19 29 19
25 0 -4 19 11 43 35 24 23 42 45 40 50 -2 4 0 7 6 7 13 0 81 67 81 80 0 5 7
10 16 10 9 0 14 7 12 17 -3 19 31 60 46 55 5 -2 6 6 3 17 -5 21 15 46 27 33 4
-4 5 5 1 20 -5 18 -2 29 8 35 8 4 17 17 19 28 1 11 6 22 10 25 4 3 8 17 10 30
4 30 17 52 27 46 3 -3 7 4 7 14 0 10 -4 16 -8 14 -11 -7 3 28 17 42 7 7 11 45
11 90 -1 63 3 83 17 97 10 10 14 23 10 30 -4 7 -6 23 -4 36 1 13 -2 27 -8 30
-14 9 -20 70 -9 99 4 13 5 21 0 19 -4 -2 -15 4 -24 15 -10 10 -13 18 -7 18 8
0 8 4 0 14 -8 10 -9 16 -1 21 14 9 1 28 -15 21 -9 -3 -12 3 -10 20 1 15 -4 28
-11 31 -8 3 -14 11 -14 18 0 7 -7 25 -14 41 -8 15 -12 32 -9 37 3 6 2 8 -3 5
-12 -8 -35 17 -26 28 4 4 0 5 -8 2 -11 -4 -16 1 -18 18 -2 25 -49 81 -64 76
-4 -1 -8 7 -8 18 0 13 -5 18 -15 14 -9 -4 -15 0 -15 9 0 8 -7 18 -16 21 -8 3
-12 11 -8 17 4 7 3 9 -4 5 -6 -3 -17 3 -25 14 -7 11 -17 17 -22 12 -4 -4 -5 2
-1 13 4 11 4 16 0 12 -11 -10 -35 13 -27 27 3 6 3 8 -2 4 -5 -5 -25 10 -47 31
-21 22 -38 37 -38 34 0 -9 -54 30 -68 49 -7 10 -18 16 -23 13 -5 -3 -6 1 -3 9
4 11 0 16 -10 16 -9 0 -16 5 -16 10 0 6 -12 10 -27 10 -14 0 -24 3 -21 6 7 7
-39 54 -53 54 -6 0 -7 5 -4 10 3 6 -3 10 -15 10 -12 0 -39 18 -60 40 -22 23
-42 41 -45 40 -24 -1 -37 1 -32 6 7 8 -17 34 -32 34 -5 0 -13 9 -16 20 -4 11
-11 18 -16 15 -5 -4 -9 1 -9 9 0 9 -7 16 -15 16 -8 0 -14 5 -12 11 1 6 -7 12
-19 13 -22 3 -66 41 -56 50 3 3 0 6 -7 6 -13 0 -151 137 -150 148 3 20 -2 32
-11 27 -5 -3 -10 1 -10 9 0 9 -8 16 -17 16 -9 0 -14 3 -10 6 8 8 -16 33 -25
27 -5 -2 -8 3 -8 12 0 9 -4 13 -10 10 -5 -3 -10 0 -10 8 0 8 -7 18 -16 21 -8
3 -12 11 -9 16 4 6 -7 23 -24 39 -17 16 -27 32 -23 36 4 5 -1 5 -12 1 -14 -5
-17 -2 -12 9 3 8 1 15 -5 15 -6 0 -7 4 -4 10 3 5 -9 23 -27 39 -18 17 -27 31
-20 31 7 0 0 12 -17 28 -16 15 -31 36 -33 47 -1 11 -15 31 -29 45 -14 14 -25
33 -23 43 1 10 -4 17 -13 17 -11 0 -14 7 -10 25 2 14 2 23 -1 20 -8 -8 -32 16
-26 26 3 5 0 8 -8 7 -7 -2 -13 5 -13 15 0 10 -9 25 -20 33 -11 8 -19 17 -17
19 8 16 0 44 -11 39 -10 -3 -13 5 -11 30 3 28 -2 38 -18 47 -16 9 -18 13 -7
20 11 6 9 12 -7 26 -12 10 -20 25 -19 35 2 9 -6 19 -19 22 -16 5 -18 8 -7 15
11 7 11 9 0 14 -8 3 -9 6 -2 6 15 1 4 41 -11 41 -8 0 -12 15 -11 40 1 21 -1
37 -5 35 -3 -2 -11 5 -18 16 -7 10 -8 19 -4 19 7 0 8 34 2 50 -1 3 -2 8 -1 13
2 13 -9 7 -15 -8z m65 -503 c-6 -3 -6 -9 1 -17 9 -11 7 -12 -8 -8 -20 5 -26
34 -8 45 6 4 14 2 18 -5 4 -7 3 -14 -3 -15z m27 -73 c10 -49 15 -63 26 -71 10
-6 10 -10 -1 -17 -11 -7 -10 -11 6 -20 11 -5 23 -7 27 -3 4 3 4 -1 1 -10 -4
-10 0 -27 8 -39 9 -12 13 -28 10 -35 -3 -8 0 -14 6 -14 16 0 46 -33 46 -50 0
-8 8 -21 17 -28 10 -7 16 -18 12 -23 -3 -5 0 -8 8 -7 8 2 13 -6 12 -19 0 -13
2 -23 6 -23 14 0 46 -35 45 -50 0 -8 8 -21 17 -28 10 -7 15 -18 12 -24 -4 -6
-3 -8 3 -5 5 3 15 -3 23 -13 8 -10 17 -17 22 -14 4 3 8 -2 8 -10 0 -9 5 -16
10 -16 6 0 10 -12 10 -26 0 -19 4 -25 14 -21 9 4 13 1 11 -6 -3 -7 11 -23 30
-37 19 -14 37 -33 40 -42 4 -10 13 -18 21 -18 8 0 13 -4 10 -8 -3 -5 6 -15 19
-22 13 -7 22 -17 20 -21 -3 -4 4 -10 15 -14 11 -3 20 -12 20 -18 0 -7 14 -21
30 -32 16 -11 30 -25 30 -31 0 -6 10 -11 23 -10 14 1 21 -4 19 -13 -2 -8 3
-11 12 -8 9 4 16 -2 19 -15 4 -13 10 -17 19 -12 7 4 10 4 6 -1 -4 -4 5 -19 20
-33 15 -14 26 -30 24 -35 -1 -5 2 -6 8 -2 5 3 10 2 10 -4 0 -6 6 -8 14 -5 16
6 58 -25 50 -38 -3 -4 3 -8 14 -8 21 0 68 -37 65 -51 -2 -4 5 -5 14 -2 11 4
14 3 9 -5 -5 -8 3 -14 23 -18 17 -4 31 -13 31 -20 0 -8 7 -14 15 -14 8 0 15
-8 15 -17 0 -15 2 -16 10 -3 9 13 10 13 10 0 0 -13 1 -13 10 0 9 14 12 12 9
-6 0 -4 12 -15 28 -25 15 -10 24 -19 20 -19 -4 0 5 -13 20 -28 15 -16 33 -26
40 -24 14 4 103 -82 103 -99 0 -7 3 -10 6 -6 9 9 119 -106 116 -120 -2 -7 2
-13 8 -13 6 0 8 -4 5 -10 -3 -5 1 -10 10 -10 11 0 15 -5 11 -16 -3 -8 -2 -12
4 -9 5 3 14 -4 20 -16 10 -17 9 -20 -2 -14 -7 3 -4 -2 8 -12 11 -10 21 -22 22
-28 6 -30 14 -45 24 -45 6 0 5 -6 -2 -16 -11 -13 -10 -16 8 -21 19 -5 21 -11
19 -74 -1 -38 2 -69 6 -69 5 0 5 -4 2 -10 -3 -5 0 -10 7 -10 18 0 17 -52 0
-65 -15 -12 -20 -94 -7 -114 6 -10 4 -12 -5 -6 -9 5 -10 2 -5 -14 4 -15 2 -21
-9 -21 -11 0 -14 -9 -12 -34 1 -19 -1 -33 -6 -30 -4 3 -8 -2 -8 -10 0 -9 -5
-16 -11 -16 -6 0 -8 -13 -5 -35 4 -25 2 -34 -7 -32 -6 1 -11 -4 -9 -11 1 -8
-2 -11 -7 -8 -12 8 -29 -15 -26 -36 2 -10 -1 -20 -6 -24 -5 -3 -9 0 -9 6 0 6
-4 9 -10 5 -5 -3 -7 -11 -4 -19 3 -7 -2 -13 -11 -13 -20 0 -19 4 5 35 13 16
17 28 10 32 -7 4 -3 16 9 32 12 14 19 35 16 47 -2 13 2 24 10 27 10 4 13 24
12 75 -1 38 1 69 4 69 4 0 3 18 -1 40 -4 22 -4 40 -1 40 4 0 4 27 1 60 -3 33
-2 60 3 60 4 0 5 5 2 10 -4 6 -11 8 -16 5 -8 -5 -10 4 -9 30 1 3 -6 13 -15 21
-8 9 -13 20 -10 25 4 5 1 9 -5 9 -6 0 -9 4 -6 9 3 5 -1 11 -9 15 -8 3 -15 17
-15 31 0 15 -6 25 -15 25 -8 0 -12 6 -9 14 6 16 -240 268 -251 257 -4 -3 -5
-1 -3 5 5 19 -43 55 -64 48 -10 -3 -18 -2 -17 3 3 20 -2 34 -11 28 -5 -3 -10
1 -10 10 0 11 -5 15 -14 12 -10 -4 -13 -1 -9 9 3 10 -2 14 -19 14 -23 0 -65
37 -60 54 2 5 -4 6 -13 3 -21 -9 -45 2 -45 20 0 8 -4 12 -9 9 -5 -3 -12 1 -15
10 -3 8 -10 12 -16 9 -6 -4 -7 1 -3 11 5 13 3 16 -10 11 -9 -3 -17 -2 -17 3 0
5 -7 7 -15 3 -10 -3 -15 0 -13 8 2 8 -3 13 -9 12 -7 -2 -13 2 -13 8 0 6 -11
20 -25 31 -14 11 -22 25 -18 31 3 7 2 9 -2 4 -10 -8 -47 22 -40 33 3 5 -5 6
-16 3 -14 -4 -25 0 -31 11 -5 9 -14 13 -20 10 -7 -4 -8 -2 -4 4 4 7 3 12 -3
12 -5 0 -12 9 -16 20 -3 11 -9 19 -13 18 -11 -3 -72 59 -72 73 0 7 -3 10 -6 7
-7 -8 -42 25 -37 35 2 4 -1 7 -6 7 -6 0 -10 3 -10 8 3 19 -2 33 -11 27 -5 -3
-10 -1 -10 4 0 14 -32 51 -39 47 -3 -2 -15 8 -25 22 -11 14 -14 22 -7 17 10
-6 11 -3 2 14 -7 11 -16 21 -21 21 -6 0 -10 7 -10 17 0 9 -3 14 -6 10 -3 -3
-15 3 -26 13 -14 13 -18 25 -13 40 4 14 3 20 -2 17 -15 -10 -55 43 -50 64 3
11 2 17 -3 14 -12 -7 -28 17 -25 38 2 9 0 15 -5 12 -10 -6 -32 20 -23 28 3 4
-2 7 -11 7 -12 0 -16 5 -12 15 3 8 -4 21 -17 30 -13 9 -16 15 -7 15 10 0 11 3
3 11 -6 6 -9 18 -6 26 3 8 -3 20 -12 27 -11 8 -16 20 -12 30 4 10 1 16 -7 16
-8 0 -16 7 -20 15 -3 8 0 15 7 15 8 0 8 3 2 8 -6 4 -10 20 -10 35 1 16 -6 32
-15 37 -8 5 -11 10 -7 10 4 0 3 10 -4 21 -9 17 -8 20 2 14 9 -6 11 -3 6 9 -5
11 -3 16 5 14 6 -2 13 -11 14 -19z m-437 -476 c-6 -7 -15 -13 -20 -13 -5 0 -6
6 -3 13 3 8 11 14 19 14 11 0 12 -4 4 -14z m-54 -69 c14 -6 13 -8 -5 -21 -11
-8 -18 -19 -14 -24 3 -6 -4 -21 -17 -35 -12 -13 -18 -24 -13 -24 5 0 1 -5 -8
-11 -10 -5 -18 -17 -18 -24 0 -8 -4 -15 -10 -15 -5 0 -10 -7 -10 -15 0 -19
-31 -55 -46 -55 -13 0 -13 -17 0 -39 6 -10 5 -12 -2 -7 -7 4 -12 2 -12 -4 0
-6 -4 -8 -10 -5 -5 3 -10 2 -10 -4 0 -14 -97 -110 -104 -103 -3 3 -6 1 -6 -5
0 -14 -46 -63 -60 -63 -5 0 -9 -3 -8 -7 2 -5 -1 -9 -7 -11 -5 -2 -13 -12 -17
-23 -4 -11 -12 -17 -18 -14 -9 6 -14 -8 -11 -28 1 -5 -3 -6 -9 -2 -5 3 -13 0
-16 -9 -3 -8 -11 -13 -18 -10 -7 3 -28 -9 -46 -26 -18 -17 -39 -29 -46 -26 -6
2 -15 -5 -18 -17 -5 -17 -8 -19 -15 -8 -6 9 -11 10 -15 2 -4 -6 -12 -9 -17 -5
-5 3 -8 0 -7 -8 2 -7 -6 -13 -17 -13 -21 0 -55 -28 -55 -46 0 -6 -8 -9 -17 -7
-10 2 -31 -9 -46 -24 -16 -15 -34 -28 -42 -28 -7 0 -28 -14 -46 -32 -19 -17
-27 -28 -19 -24 8 4 6 0 -5 -8 -11 -9 -25 -14 -31 -12 -7 3 -22 -9 -35 -25
-12 -16 -28 -29 -35 -29 -8 0 -13 -6 -11 -12 1 -7 -4 -12 -11 -10 -8 1 -12 -5
-11 -15 3 -19 -51 -83 -71 -83 -6 0 -10 -8 -9 -17 1 -10 1 -27 0 -38 -1 -17
-3 -18 -11 -5 -15 23 -12 57 6 64 9 4 14 9 11 13 -4 3 2 18 12 32 10 14 16 33
13 41 -3 8 -2 12 2 9 10 -9 53 33 48 47 -2 6 4 18 12 27 8 8 12 18 8 22 -4 5
-2 5 4 2 13 -7 56 38 46 48 -4 4 -2 6 3 5 21 -5 36 0 30 9 -3 5 4 13 16 16 11
4 18 9 15 12 -3 3 18 28 47 55 29 27 51 54 50 59 -2 5 4 9 12 9 7 0 19 8 24
18 6 9 11 12 11 5 0 -7 7 -10 15 -7 8 4 12 10 9 15 -3 5 2 9 10 9 8 0 20 9 26
20 6 11 16 17 25 14 8 -4 18 1 21 10 3 9 10 13 15 10 5 -3 9 2 9 11 0 11 5 15
15 11 8 -3 15 -1 15 5 0 6 4 8 8 5 5 -3 14 3 21 13 9 12 21 17 35 13 11 -3 18
-2 14 2 -9 10 30 48 42 41 5 -3 11 -1 15 5 4 6 11 7 17 4 7 -5 9 -1 5 9 -4 11
-1 15 11 12 19 -3 65 29 55 39 -6 5 12 10 29 7 4 0 5 6 2 14 -4 9 0 15 10 15
9 0 16 6 16 14 0 9 7 13 18 12 19 -4 95 68 84 79 -4 4 0 5 8 3 9 -2 15 4 15
15 0 10 8 24 17 31 10 7 15 16 11 19 -3 4 1 7 11 7 9 0 14 5 11 10 -6 9 7 14
27 11 4 0 5 5 2 13 -3 8 5 21 18 30 13 9 22 19 21 21 -7 13 -2 25 9 19 8 -5 9
-2 5 9 -7 19 -6 20 18 11z m-1098 -1120 c-9 -9 -28 6 -21 18 4 6 10 6 17 -1 6
-6 8 -13 4 -17z m2940 -691 c-3 -3 -11 -2 -17 2 -9 6 -9 10 1 16 14 8 27 -7
16 -18z m-17 -12 c0 -17 -18 -21 -24 -6 -3 9 0 15 9 15 8 0 15 -4 15 -9z"/>
</g>
</svg>
